<?xml version="1.0" encoding="UTF-8"?>
<svg width="17px" height="18px" viewBox="0 0 17 18" version="1.1" xmlns="http://www.w3.org/2000/svg" xmlns:xlink="http://www.w3.org/1999/xlink">
    <title>Group 7</title>
    <defs>
        <path d="M0,9.43 C0,14.13 3.81,17.93 8.5,17.93 L8.5,17.93 C13.19,17.93 17,14.12 17,9.43 L17,9.43 C17,4.74 13.19,0.93 8.5,0.93 L8.5,0.93 C3.81,0.93 0,4.73 0,9.43 L0,9.43 Z M2.12,9.43 C2.12,5.91 4.98,3.06 8.5,3.06 L8.5,3.06 C12.019,3.06 14.88,5.91 14.88,9.43 L14.88,9.43 C14.88,12.96 12.019,15.81 8.5,15.81 L8.5,15.81 C4.97,15.81 2.12,12.95 2.12,9.43 L2.12,9.43 Z" id="path-1"></path>
        <path d="M0.58,4.43 C0.58,6.581 2.35,8.35 4.5,8.35 L4.5,8.35 C6.651,8.35 8.42,6.581 8.42,4.43 L8.42,4.43 C8.42,2.28 6.66,0.51 4.5,0.51 L4.5,0.51 C2.34,0.51 0.58,2.28 0.58,4.43 L0.58,4.43 Z M1.56,4.43 C1.56,2.811 2.88,1.49 4.5,1.49 L4.5,1.49 C5.139,1.49 5.731,1.69 6.201,2.03 L6.201,2.03 L2.1,6.13 C1.75,5.66 1.56,5.07 1.56,4.43 L1.56,4.43 Z M2.799,6.83 C3.63,6 5.95,3.68 6.901,2.73 L6.901,2.73 C7.24,3.2 7.441,3.791 7.441,4.43 L7.441,4.43 C7.441,6.05 6.12,7.37 4.5,7.37 L4.5,7.37 C3.86,7.37 3.27,7.17 2.799,6.83 L2.799,6.83 Z" id="path-3"></path>
    </defs>
    <g id="Motion-Screens" stroke="none" stroke-width="1" fill="none" fill-rule="evenodd">
        <g id="Member-360---Topic-added" transform="translate(-407.000000, -1304.000000)">
            <g id="Group-7" transform="translate(407.000000, 1304.000000)">
                <g id="Group-3">
                    <mask id="mask-2" fill="white">
                        <use xlink:href="#path-1"></use>
                    </mask>
                    <g id="Clip-2"></g>
                    <polygon id="Fill-1" fill="#DDDBDA" mask="url(#mask-2)" points="-5 22.93 22 22.93 22 -4.07 -5 -4.07"></polygon>
                </g>
                <g id="Group-6" transform="translate(4.000000, 5.000000)">
                    <mask id="mask-4" fill="white">
                        <use xlink:href="#path-3"></use>
                    </mask>
                    <g id="Clip-5"></g>
                    <polygon id="Fill-4" fill="#C23934" mask="url(#mask-4)" points="-4.42 13.36 13.43 13.36 13.43 -4.49 -4.42 -4.49"></polygon>
                </g>
            </g>
        </g>
    </g>
</svg>