<?xml version="1.0" encoding="UTF-8"?> 
<svg width="17px" height="18px" viewBox="0 0 17 18" version="1.1" xmlns="http://www.w3.org/2000/svg" xmlns:xlink="http://www.w3.org/1999/xlink">
    <title>Group 7</title>
    <defs>
        <path d="M0,9.389 C0,14.084 3.806,17.89 8.5,17.89 L8.5,17.89 C13.194,17.89 17,14.084 17,9.389 L17,9.389 C17,4.695 13.194,0.89 8.5,0.89 L8.5,0.89 C3.806,0.89 0,4.695 0,9.389 L0,9.389 Z" id="path-1"></path>
        <path d="M7.49,0.68 L3.6,4.6 C3.54,4.66 3.42,4.66 3.36,4.6 L3.36,4.6 L1.37,2.6 C1.279,2.5 1.12,2.5 1.02,2.6 L1.02,2.6 L0.67,2.95 C0.57,3.04 0.57,3.2 0.67,3.3 L0.67,3.3 L3.32,5.95 C3.41,6.07 3.57,6.07 3.66,5.96 L3.66,5.96 L8.19,1.38 C8.29,1.29 8.29,1.131 8.19,1.03 L8.19,1.03 L7.839,0.68 C7.794,0.63 7.732,0.605 7.668,0.605 L7.668,0.605 C7.605,0.605 7.54,0.63 7.49,0.68 L7.49,0.68 Z" id="path-3"></path>
    </defs>
    <g id="Motion-Screens" stroke="none" stroke-width="1" fill="none" fill-rule="evenodd">
        <g id="Member-360---Topic-added" transform="translate(-431.000000, -1257.000000)">
            <g id="Group-7" transform="translate(431.000000, 1257.000000)">
                <g id="Group-3">
                    <mask id="mask-2" fill="white">
                        <use xlink:href="#path-1"></use>
                    </mask>
                    <g id="Clip-2"></g>
                    <polygon id="Fill-1" fill="#4BCA81" mask="url(#mask-2)" points="-5 22.89 22 22.89 22 -4.11 -5 -4.11"></polygon>
                </g>
                <g id="Group-6" transform="translate(4.000000, 6.000000)">
                    <mask id="mask-4" fill="white">
                        <use xlink:href="#path-3"></use>
                    </mask>
                    <g id="Clip-5"></g>
                    <polygon id="Fill-4" fill="#FFFFFF" mask="url(#mask-4)" points="-4.4 11.04 13.269 11.04 13.269 -4.4 -4.4 -4.4"></polygon>
                </g>
            </g>
        </g>
    </g>
</svg>
