<?xml version="1.0" encoding="UTF-8"?> 
<svg width="17px" height="18px" viewBox="0 0 17 18" version="1.1" xmlns="http://www.w3.org/2000/svg" xmlns:xlink="http://www.w3.org/1999/xlink">
    <title>Group 11</title>
    <defs>
        <path d="M0,9.41 C0,14.11 3.8,17.911 8.491,17.911 L8.491,17.911 C13.18,17.911 16.98,14.1 16.98,9.41 L16.98,9.41 C16.98,4.72 13.18,0.91 8.491,0.91 L8.491,0.91 C3.8,0.91 0,4.71 0,9.41 L0,9.41 Z M2.12,9.41 C2.12,5.89 4.97,3.04 8.491,3.04 L8.491,3.04 C12.01,3.04 14.86,5.89 14.86,9.41 L14.86,9.41 C14.86,12.94 12.01,15.79 8.491,15.79 L8.491,15.79 C4.97,15.79 2.12,12.93 2.12,9.41 L2.12,9.41 Z" id="path-1"></path>
        <path d="M0,9.14 L0,9.4 L2.12,9.4 C2.12,5.88 4.97,3.03 8.491,3.03 L8.491,3.03 L8.491,0.91 C3.89,0.91 0.14,4.58 0,9.14 L0,9.14 Z" id="path-3"></path>
        <path d="M4.12,0.32 L0.66,5.899 C0.451,6.25 0.66,6.73 1.04,6.73 L1.04,6.73 L7.95,6.73 C8.32,6.73 8.55,6.25 8.32,5.899 L8.32,5.899 L4.87,0.32 C4.779,0.171 4.637,0.095 4.495,0.095 L4.495,0.095 C4.352,0.095 4.21,0.171 4.12,0.32 L4.12,0.32 Z M4.05,4.171 L4.05,2.21 C4.05,2.119 4.11,2.06 4.2,2.06 L4.2,2.06 L4.8,2.06 C4.89,2.06 4.951,2.119 4.951,2.21 L4.951,2.21 L4.951,4.171 C4.951,4.26 4.89,4.32 4.8,4.32 L4.8,4.32 L4.2,4.32 C4.11,4.32 4.05,4.26 4.05,4.171 L4.05,4.171 Z M4.04,5.07 C4.04,4.81 4.24,4.62 4.491,4.62 L4.491,4.62 C4.74,4.62 4.94,4.819 4.94,5.07 L4.94,5.07 C4.951,5.331 4.75,5.52 4.491,5.52 L4.491,5.52 C4.23,5.52 4.04,5.32 4.04,5.07 L4.04,5.07 Z" id="path-5"></path>
    </defs>
    <g id="Motion-Screens" stroke="none" stroke-width="1" fill="none" fill-rule="evenodd">
        <g id="Member-360---Topic-added" transform="translate(-488.000000, -1261.000000)">
            <g id="Group-11" transform="translate(488.000000, 1261.000000)">
                <g id="Group-3">
                    <mask id="mask-2" fill="white">
                        <use xlink:href="#path-1"></use>
                    </mask>
                    <g id="Clip-2"></g>
                    <polygon id="Fill-1" fill="#DDDBDA" mask="url(#mask-2)" points="-5 22.91 21.99 22.91 21.99 -4.09 -5 -4.09"></polygon>
                </g>
                <g id="Group-7">
                    <mask id="mask-4" fill="white">
                        <use xlink:href="#path-3"></use>
                    </mask>
                    <g id="Clip-5"></g>
                    <polygon id="Fill-4" fill="#D8D8D8" mask="url(#mask-4)" points="-5 14.41 13.49 14.41 13.49 -4.09 -5 -4.09"></polygon>
                    <polygon id="Fill-6" fill="#FFB75D" mask="url(#mask-4)" points="-5 22.91 21.99 22.91 21.99 -4.09 -5 -4.09"></polygon>
                </g>
                <g id="Group-10" transform="translate(4.000000, 6.000000)">
                    <mask id="mask-6" fill="white">
                        <use xlink:href="#path-5"></use>
                    </mask>
                    <g id="Clip-9"></g>
                    <polygon id="Fill-8" fill="#FFB75D" mask="url(#mask-6)" points="-4.42 11.73 13.41 11.73 13.41 -4.91 -4.42 -4.91"></polygon>
                </g>
            </g>
        </g>
    </g>
</svg>
