<?xml version="1.0" encoding="UTF-8"?>
<svg width="187px" height="20px" viewBox="0 0 187 20" version="1.1" xmlns="http://www.w3.org/2000/svg" xmlns:xlink="http://www.w3.org/1999/xlink">
    <title>Family Link Logo</title>
    <g id="Page-1" stroke="none" stroke-width="1" fill="none" fill-rule="evenodd">
        <g id="Family-Link-Login-option-3.1" transform="translate(-126.000000, -31.000000)">
            <g id="Family-Link-Logo" transform="translate(126.000000, 31.000000)">
                <polygon id="Fill-1" fill="#263270" points="0 0 0 20 4.59789474 20 4.59789474 12.2033898 13.2926316 12.2033898 13.2926316 8.13559322 4.59789474 8.13559322 4.59789474 4.06928338 14 4.06928338 14 0"></polygon>
                <path d="M22.6487214,0 L14,20 L18.8613728,20 L20.5274492,15.7627119 L28.3014805,15.7627119 L30.0240844,20 L35,20 L26.294751,0 L22.6487214,0 Z M24.3430616,5.81920904 L26.8034993,12.0353851 L21.9123752,12.0353851 L24.3430616,5.81920904 Z" id="Fill-2" fill="#263270"></path>
                <polygon id="Fill-3" fill="#263270" points="53.5375 0 49.0260526 13.0523342 48.9725 13.0523342 44.49 0 38 0 38 20 42.29 20 42.29 4.66250372 42.345 4.66250372 47.2660526 20 50.54 20 55.6535526 4.66250372 55.71 4.66250372 55.71 20 60 20 60 0"></polygon>
                <polygon id="Fill-4" fill="#263270" points="64 20 68 20 68 0 64 0"></polygon>
                <polygon id="Fill-5" fill="#263270" points="73 0 73 20 86 20 86 15.9322034 77.5567644 15.9322034 77.5567644 0"></polygon>
                <polygon id="Fill-6" fill="#263270" points="97.8909884 0 93.5 7.48736247 89.3575581 0 84 0 91.3459302 11.4704133 91.3459302 20 95.6540698 20 95.6540698 11.4704133 103 0"></polygon>
                <polygon id="Fill-7" fill="#263270" points="119 0 119 20 132 20 132 15.9322034 123.557303 15.9322034 123.557303 0"></polygon>
                <polygon id="Fill-8" fill="#263270" points="136 20 140 20 140 0 136 0"></polygon>
                <polygon id="Fill-9" fill="#263270" points="157.581569 0 157.581569 13.8983051 157.524941 13.8983051 149.00251 0 143 0 143 20 147.416941 20 147.416941 5.76271186 147.473569 5.76271186 156.22251 20 162 20 162 0"></polygon>
                <polygon id="Fill-10" fill="#263270" points="180.369563 0 172.476187 8.30508475 172.476187 0 168 0 168 20 172.476187 20 172.476187 10.5099613 180.742705 20 187 20 177.18351 9.29378531 186.225014 0"></polygon>
                <polygon id="Fill-11" fill="#0BBED4" points="111.042399 0 103 20 107.957601 20 116 0"></polygon>
            </g>
        </g>
    </g>
</svg>