<?xml version="1.0" encoding="UTF-8"?>
<svg width="100px" height="100px" viewBox="0 0 100 100" version="1.1" xmlns="http://www.w3.org/2000/svg" xmlns:xlink="http://www.w3.org/1999/xlink">
    <title>help</title>
    <g id="Page-1" stroke="none" stroke-width="1" fill="none" fill-rule="evenodd">
        <g id="Family-Link-Login-option-3.1" transform="translate(-616.000000, -572.000000)" fill="#002677">
            <g id="help" transform="translate(616.000000, 572.000000)">
                <path d="M39.5833333,47.9075 L45.8333333,47.9075 L45.8333333,41.6575 L54.1666667,41.6575 L54.1666667,47.9075 L61.4625,47.9075 L59.3791667,56.2408333 L54.1666667,56.2408333 L54.1666667,62.4908333 L45.8333333,62.4908333 L45.8333333,56.2408333 L39.5833333,56.2408333 L39.5833333,47.9075 Z M20.8333333,68.7491667 L79.1666667,68.7491667 L79.1666667,37.5116667 L20.8333333,37.5116667 L20.8333333,68.7491667 Z" id="Fill-1"></path>
                <path d="M83.3333333,68.75 C83.3333333,71.05 81.4666667,72.9166667 79.1666667,72.9166667 L20.8333333,72.9166667 C18.5333333,72.9166667 16.6666667,71.05 16.6666667,68.75 L16.6666667,31.25 C16.6666667,28.95 18.5333333,27.0833333 20.8333333,27.0833333 L79.1666667,27.0833333 C81.4666667,27.0833333 83.3333333,28.95 83.3333333,31.25 L83.3333333,68.75 Z M50,0 C22.3854167,0 0,22.3854167 0,50 C0,77.6145833 22.3854167,100 50,100 C77.6145833,100 100,77.6145833 100,50 C100,22.3854167 77.6145833,0 50,0 L50,0 Z" id="Fill-2"></path>
            </g>
        </g>
    </g>
</svg>