<?xml version="1.0" encoding="UTF-8"?>
<svg width="38px" height="38px" viewBox="0 0 38 38" version="1.1" xmlns="http://www.w3.org/2000/svg" xmlns:xlink="http://www.w3.org/1999/xlink">
    <title>5A9F3027-1552-4660-8ED3-B33DEF1E1D84@1x</title>
    <g id="Page-1" stroke="none" stroke-width="1" fill="none" fill-rule="evenodd">
        <g id="Mobile-FL-Step-1" transform="translate(-66.000000, -104.000000)">
            <g id="Tracker-1" transform="translate(53.500000, 104.000000)">
                <g id=".blocks/Steps-2/1st-step-active" transform="translate(12.500000, 0.000000)">
                    <circle id="bg" fill="#FFFFFF" cx="19" cy="19" r="19"></circle>
                    <path d="M17.1004557,0.0937677265 L17.1004312,2.00431702 C8.55031771,2.94926512 1.9,10.1980001 1.9,19 C1.9,27.8019999 8.55031771,35.0507349 17.1004312,35.995683 L17.1004557,37.9062323 C7.49892413,36.9531669 0,28.8523172 0,19 C0,9.14768276 7.49892413,1.04683309 17.1004557,0.0937677265 Z M38,19 C38,28.8519753 30.5015963,36.9526046 20.900544,37.906133 L20.9005667,35.9955727 C29.4501997,35.0501709 36.1,27.8016575 36.1,19 C36.1,10.1983425 29.4501997,2.94982914 20.9005667,2.00442734 L20.900544,0.0938669783 C30.5015963,1.04739535 38,9.14802467 38,19 Z" id="Combined-Shape" fill="#DBDBDB" fill-rule="nonzero"></path>
                    <g id=".blocks/step-number" transform="translate(7.600000, 7.600000)">
                        <circle id="Oval" stroke="#F4F4F4" stroke-width="2" fill="#FFFFFF" cx="11.4" cy="11.4" r="11.4"></circle>
                        <text id="Step-Number" font-family="UHC2020Sans-Bold, UHC2020 Sans" font-size="16" font-weight="bold" fill="#4A4A4A">
                            <tspan x="6.816" y="16.4">1</tspan>
                        </text>
                    </g>
                    <path d="M38,18.9061889 C38,28.7580325 30.5017969,36.8585769 20.9009292,37.8122837 L20.9007509,33.9884971 C28.3983793,33.0531774 34.2,26.6572037 34.2,18.9061889 C34.2,11.1551741 28.3983793,4.75920045 20.9007509,3.82388072 L20.9009292,9.41731262e-05 C30.5017969,0.953800976 38,9.05434537 38,18.9061889 Z" id="Path" fill="#000000" fill-rule="nonzero"></path>
                </g>
            </g>
        </g>
    </g>
</svg>