<?xml version="1.0" encoding="UTF-8"?>
<svg width="41px" height="40px" viewBox="0 0 41 40" version="1.1" xmlns="http://www.w3.org/2000/svg" xmlns:xlink="http://www.w3.org/1999/xlink">
    <title>AE7BF6D1-72BF-4E32-AA65-4468887F0DD3@1x</title>
    <g id="Page-1" stroke="none" stroke-width="1" fill="none" fill-rule="evenodd">
        <g id="Register-1" transform="translate(-775.000000, -293.000000)">
            <g id="Tracker-1" transform="translate(575.000000, 293.000000)">
                <g id=".blocks/Steps-2/default" transform="translate(200.500000, 0.000000)">
                    <circle id="bg" fill="#FFFFFF" cx="20" cy="20" r="20"></circle>
                    <path d="M18.0000201,0.0987484939 L18.0005846,2.10979295 C9.00040219,3.10441575 2,10.7346921 2,20 C2,29.2653079 9.00040219,36.8955843 18.0005846,37.8902071 L18.0000201,39.9012515 C7.89336506,38.8978119 0,30.3707031 0,20 C0,9.74714584 7.71498968,1.29622406 17.6563408,0.135862971 L18.0000201,0.0987484939 Z M40,20 C40,30.3703616 32.1071547,38.8972505 22.0009781,39.9011524 L22.0004182,37.8900962 C31.0001178,36.8950175 38,29.2649638 38,20 C38,10.7350362 31.0001178,3.10498251 22.0004182,2.10990379 L22.0009781,0.0988476235 C32.1071547,1.10274952 40,9.62963836 40,20 Z" id="Shape" fill="#DBDBDB" fill-rule="nonzero"></path>
                    <g id=".blocks/step-number" transform="translate(8.000000, 8.000000)">
                        <circle id="Oval" stroke="#F4F4F4" stroke-width="2" fill="#FFFFFF" cx="12" cy="12" r="12"></circle>
                        <text id="Step-Number" font-family="UHC2020Sans-Bold, UHC2020 Sans" font-size="16" font-weight="bold" fill="#4A4A4A">
                            <tspan x="7.416" y="17">2</tspan>
                        </text>
                    </g>
                </g>
            </g>
        </g>
    </g>
</svg>