<?xml version="1.0" encoding="UTF-8"?>
<svg width="100px" height="100px" viewBox="0 0 100 100" version="1.1" xmlns="http://www.w3.org/2000/svg" xmlns:xlink="http://www.w3.org/1999/xlink">
    <title>support</title>
    <defs>
        <polygon id="path-1" points="0 0 99.9995833 0 99.9995833 100 0 100"></polygon>
    </defs>
    <g id="Page-1" stroke="none" stroke-width="1" fill="none" fill-rule="evenodd">
        <g id="Family-Link-Login-option-3.1" transform="translate(-189.000000, -572.000000)">
            <g id="support" transform="translate(189.000000, 572.000000)">
                <mask id="mask-2" fill="white">
                    <use xlink:href="#path-1"></use>
                </mask>
                <g id="Clip-2"></g>
                <path d="M64.1641667,70.8333333 L49.9995833,70.8333333 L35.835,70.8333333 C24.32875,70.8333333 15.0016667,61.50625 15.0016667,50 L29.16625,50 C40.6725,50 49.9995833,59.3270833 49.9995833,70.8333333 C49.9995833,59.3270833 59.32875,50 70.8329167,50 L84.9975,50 C84.9975,61.50625 75.6704167,70.8333333 64.1641667,70.8333333 M33.6058333,31.7895833 L42.2495833,38.6479167 C46.26625,41.8333333 48.8433333,45.8958333 49.9745833,50.1645833 C51.1058333,45.8958333 53.6870833,41.8333333 57.6995833,38.6479167 L66.3454167,31.7895833 C70.8058333,36.3166667 72.4870833,42.20625 71.5954167,47.9166667 L70.8079167,47.9166667 C61.56,47.9166667 53.5933333,53.4333333 49.9745833,61.3416667 C46.3579167,53.4333333 38.39125,47.9166667 29.14125,47.9166667 L28.3579167,47.9166667 C27.4641667,42.20625 29.1454167,36.3166667 33.6058333,31.7895833 M49.9995833,27.0833333 C52.9225,30.0041667 55.0329167,33.4166667 56.3933333,37.0479167 C53.70375,39.1895833 51.5433333,41.7395833 49.9995833,44.575 C48.4558333,41.7395833 46.2975,39.1895833 43.6079167,37.0479167 C44.96625,33.4166667 47.0808333,30.0041667 49.9995833,27.0833333 M49.9995833,0 C22.385,0 -0.000416666667,22.3854167 -0.000416666667,50 C-0.000416666667,77.6145833 22.385,100 49.9995833,100 C77.6141667,100 99.9995833,77.6145833 99.9995833,50 C99.9995833,22.3854167 77.6141667,0 49.9995833,0" id="Fill-1" fill="#002677" mask="url(#mask-2)"></path>
            </g>
        </g>
    </g>
</svg>