<?xml version="1.0" encoding="UTF-8"?>
<svg width="30px" height="52px" viewBox="0 0 30 52" version="1.1" xmlns="http://www.w3.org/2000/svg" xmlns:xlink="http://www.w3.org/1999/xlink">
    <title>UHC U Copy</title>
    <g id="Page-1" stroke="none" stroke-width="1" fill="none" fill-rule="evenodd">
        <g id="Family-Link-Login-option-3.1" transform="translate(-67.000000, -14.000000)" fill="#002677">
            <path d="M79,22 L67,27.7970112 L67,49.9389788 C67,54.1668742 69.4813559,57 73.1423729,57 C76.7627119,57 79,54.1232877 79,49.2851806 L79,22 Z M70,57.7636364 L70,57.7636364 C71.6444444,58.2459893 73.1555556,58.5529412 74.4888889,58.5529412 C79.7777778,58.5529412 83.0222222,55.7026738 83.0222222,48.2042781 L83.0222222,20.4032086 L86,19 L86,47.7657754 C86,56.1850267 82.0888889,60 76.4888889,60 C74.1333333,60 71.9111111,59.2106952 70,57.7636364 M72,60.4059869 L72,60.4059869 C73.7972973,61.0215154 75.5945946,61.4172123 77.1779279,61.4172123 C83.7252252,61.4172123 88.0900901,57.1964453 88.0900901,47.655753 L88.0900901,17.4069224 L91,16 L91,47.919551 C91,57.8999065 86.0788288,63 79.231982,63 C76.7072072,63 74.1396396,62.0327409 72,60.4059869 M75,63.6146789 L75,63.6146789 C76.6753507,64.1784821 78.4388778,64.4820684 80.3346693,64.4820684 C88.3587174,64.4820684 93.9579158,58.7572977 93.9579158,47.8715596 L93.9579158,15.4311927 L97,14 L97,48.4353628 C97,59.5379483 91.1803607,66 82.9358717,66 C80.0701403,66 77.3807615,65.1326105 75,63.6146789" id="UHC-U-Copy"></path>
        </g>
    </g>
</svg>